<svg xmlns="http://www.w3.org/2000/svg" xmlns:xlink="http://www.w3.org/1999/xlink" x="0px" y="0px"
	 viewBox="0 0 159.923 63.868" xml:space="preserve">
<g>
	<path style="fill:#FFA400;" d="M3.421,48.574v5.921l6.716-7.004c0.322-0.338,0.597-0.587,0.824-0.749
		c0.226-0.161,0.528-0.242,0.904-0.242c0.491,0,0.889,0.144,1.192,0.432s0.455,0.64,0.455,1.054c0,0.499-0.257,0.994-0.771,1.486
		l-4.159,3.939l4.792,6.865c0.338,0.477,0.591,0.893,0.76,1.25s0.253,0.705,0.253,1.043c0,0.376-0.148,0.702-0.443,0.979
		c-0.296,0.276-0.697,0.415-1.204,0.415c-0.477,0-0.864-0.102-1.164-0.306c-0.3-0.203-0.553-0.474-0.76-0.812
		c-0.208-0.338-0.392-0.646-0.553-0.922l-4.043-6.221l-2.799,2.685v3.49c0,0.706-0.162,1.23-0.484,1.572
		c-0.323,0.342-0.737,0.513-1.244,0.513c-0.292,0-0.572-0.077-0.841-0.23c-0.269-0.153-0.477-0.361-0.622-0.622
		c-0.108-0.215-0.173-0.465-0.196-0.749C0.011,62.078,0,61.667,0,61.129V48.574c0-0.691,0.151-1.21,0.455-1.556
		C0.758,46.672,1.171,46.5,1.693,46.5c0.514,0,0.931,0.171,1.25,0.513C3.262,47.354,3.421,47.875,3.421,48.574z"/>
	<path style="fill:#FFA400;" d="M24.859,62.189c-0.76,0.592-1.496,1.035-2.206,1.331c-0.71,0.295-1.507,0.443-2.39,0.443
		c-0.807,0-1.515-0.159-2.125-0.479c-0.61-0.318-1.081-0.75-1.411-1.296c-0.33-0.545-0.495-1.136-0.495-1.773
		c0-0.86,0.272-1.594,0.818-2.2c0.545-0.606,1.294-1.014,2.246-1.222c0.2-0.046,0.695-0.149,1.486-0.311s1.469-0.31,2.033-0.443
		c0.564-0.135,1.177-0.298,1.837-0.49c-0.039-0.829-0.206-1.438-0.501-1.825c-0.296-0.388-0.908-0.582-1.837-0.582
		c-0.799,0-1.399,0.111-1.803,0.334s-0.749,0.557-1.037,1.002c-0.288,0.446-0.492,0.739-0.611,0.882
		c-0.119,0.142-0.374,0.213-0.766,0.213c-0.353,0-0.658-0.113-0.916-0.34s-0.386-0.517-0.386-0.87c0-0.553,0.196-1.09,0.587-1.612
		s1.002-0.952,1.832-1.29c0.829-0.338,1.862-0.507,3.099-0.507c1.382,0,2.469,0.163,3.26,0.489c0.791,0.326,1.35,0.843,1.676,1.55
		c0.326,0.706,0.49,1.644,0.49,2.811c0,0.737-0.002,1.363-0.006,1.878c-0.004,0.515-0.01,1.087-0.017,1.716
		c0,0.592,0.098,1.208,0.293,1.849c0.196,0.642,0.294,1.055,0.294,1.239c0,0.322-0.152,0.616-0.455,0.881
		c-0.304,0.265-0.647,0.397-1.031,0.397c-0.322,0-0.641-0.151-0.956-0.455S25.212,62.765,24.859,62.189z M24.651,57.639
		c-0.46,0.169-1.131,0.348-2.01,0.535c-0.879,0.188-1.488,0.327-1.826,0.415c-0.338,0.089-0.661,0.262-0.968,0.519
		s-0.46,0.616-0.46,1.077c0,0.477,0.18,0.881,0.542,1.215c0.361,0.334,0.833,0.501,1.417,0.501c0.622,0,1.196-0.136,1.722-0.408
		s0.912-0.624,1.158-1.055c0.284-0.476,0.426-1.259,0.426-2.35V57.639z"/>
	<path style="fill:#FFA400;" d="M33.787,52.917v0.38c0.553-0.729,1.158-1.266,1.814-1.607s1.411-0.513,2.264-0.513
		c0.829,0,1.57,0.181,2.223,0.542s1.141,0.871,1.463,1.532c0.208,0.384,0.342,0.799,0.403,1.244s0.092,1.014,0.092,1.704v5.853
		c0,0.63-0.144,1.105-0.432,1.428c-0.288,0.323-0.663,0.484-1.123,0.484c-0.469,0-0.849-0.165-1.141-0.495s-0.438-0.803-0.438-1.417
		V56.81c0-1.037-0.144-1.83-0.432-2.379s-0.862-0.824-1.722-0.824c-0.561,0-1.071,0.167-1.532,0.501
		c-0.46,0.335-0.799,0.794-1.014,1.377c-0.154,0.469-0.23,1.344-0.23,2.627v3.939c0,0.638-0.148,1.115-0.443,1.434
		c-0.296,0.319-0.678,0.479-1.146,0.479c-0.454,0-0.826-0.165-1.118-0.495s-0.438-0.803-0.438-1.417v-9.089
		c0-0.6,0.13-1.047,0.392-1.342c0.261-0.296,0.618-0.444,1.071-0.444c0.276,0,0.526,0.065,0.749,0.196s0.401,0.326,0.536,0.588
		C33.719,52.221,33.787,52.54,33.787,52.917z"/>
	<path style="fill:#FFA400;" d="M45.352,51.453h0.346v-1.889c0-0.507,0.013-0.904,0.041-1.192c0.027-0.288,0.102-0.535,0.225-0.743
		c0.123-0.215,0.299-0.39,0.53-0.524s0.488-0.202,0.772-0.202c0.399,0,0.76,0.15,1.083,0.449c0.215,0.2,0.352,0.443,0.409,0.731
		s0.086,0.697,0.086,1.227v2.143h1.152c0.445,0,0.785,0.106,1.02,0.317c0.234,0.211,0.351,0.481,0.351,0.813
		c0,0.422-0.167,0.718-0.501,0.887s-0.812,0.253-1.434,0.253h-0.587v5.783c0,0.491,0.017,0.869,0.052,1.135
		c0.035,0.265,0.126,0.479,0.276,0.645c0.15,0.166,0.394,0.248,0.731,0.248c0.185,0,0.434-0.032,0.749-0.098
		c0.314-0.065,0.561-0.099,0.737-0.099c0.254,0,0.482,0.103,0.686,0.306s0.305,0.455,0.305,0.755c0,0.507-0.276,0.895-0.829,1.163
		c-0.553,0.269-1.348,0.403-2.385,0.403c-0.983,0-1.728-0.165-2.235-0.495s-0.839-0.787-0.996-1.371
		c-0.158-0.584-0.236-1.363-0.236-2.339v-6.036h-0.415c-0.453,0-0.799-0.107-1.037-0.322c-0.238-0.215-0.357-0.487-0.357-0.817
		c0-0.331,0.125-0.602,0.375-0.813S44.876,51.453,45.352,51.453z"/>
	<path style="fill:#FFA400;" d="M61.479,62.189c-0.76,0.592-1.496,1.035-2.206,1.331c-0.71,0.295-1.507,0.443-2.39,0.443
		c-0.807,0-1.515-0.159-2.125-0.479c-0.61-0.318-1.081-0.75-1.411-1.296c-0.33-0.545-0.495-1.136-0.495-1.773
		c0-0.86,0.272-1.594,0.818-2.2c0.545-0.606,1.294-1.014,2.246-1.222c0.2-0.046,0.695-0.149,1.486-0.311s1.469-0.31,2.033-0.443
		c0.564-0.135,1.177-0.298,1.837-0.49c-0.039-0.829-0.206-1.438-0.501-1.825c-0.296-0.388-0.908-0.582-1.837-0.582
		c-0.799,0-1.399,0.111-1.803,0.334s-0.749,0.557-1.037,1.002c-0.288,0.446-0.492,0.739-0.611,0.882
		c-0.119,0.142-0.374,0.213-0.766,0.213c-0.353,0-0.658-0.113-0.916-0.34s-0.386-0.517-0.386-0.87c0-0.553,0.196-1.09,0.587-1.612
		s1.002-0.952,1.832-1.29c0.829-0.338,1.862-0.507,3.099-0.507c1.382,0,2.469,0.163,3.26,0.489c0.791,0.326,1.35,0.843,1.676,1.55
		c0.326,0.706,0.49,1.644,0.49,2.811c0,0.737-0.002,1.363-0.006,1.878s-0.01,1.087-0.017,1.716c0,0.592,0.098,1.208,0.293,1.849
		c0.196,0.642,0.294,1.055,0.294,1.239c0,0.322-0.152,0.616-0.455,0.881c-0.304,0.265-0.647,0.397-1.031,0.397
		c-0.322,0-0.641-0.151-0.956-0.455S61.833,62.765,61.479,62.189z M61.272,57.639c-0.46,0.169-1.131,0.348-2.01,0.535
		c-0.879,0.188-1.488,0.327-1.826,0.415c-0.338,0.089-0.661,0.262-0.968,0.519s-0.46,0.616-0.46,1.077
		c0,0.477,0.18,0.881,0.542,1.215c0.361,0.334,0.833,0.501,1.417,0.501c0.622,0,1.196-0.136,1.722-0.408s0.912-0.624,1.158-1.055
		c0.284-0.476,0.426-1.259,0.426-2.35V57.639z"/>
	<path style="fill:#FFA400;" d="M70.672,59.424v2.627c0,0.638-0.15,1.115-0.449,1.434c-0.3,0.319-0.68,0.479-1.141,0.479
		c-0.453,0-0.826-0.161-1.117-0.484c-0.292-0.322-0.438-0.798-0.438-1.428v-8.755c0-1.413,0.511-2.12,1.532-2.12
		c0.522,0,0.898,0.166,1.129,0.496s0.357,0.817,0.38,1.463c0.376-0.646,0.762-1.133,1.158-1.463c0.395-0.33,0.923-0.496,1.583-0.496
		c0.661,0,1.302,0.166,1.924,0.496s0.933,0.768,0.933,1.313c0,0.385-0.132,0.701-0.397,0.951c-0.265,0.249-0.551,0.374-0.858,0.374
		c-0.115,0-0.394-0.071-0.835-0.213c-0.441-0.143-0.831-0.214-1.169-0.214c-0.461,0-0.837,0.121-1.129,0.363
		c-0.292,0.242-0.519,0.601-0.68,1.077c-0.162,0.477-0.273,1.042-0.334,1.699C70.703,57.679,70.672,58.48,70.672,59.424z"/>
	<path style="fill:#FFA400;" d="M86.073,58.341h-6.151c0.008,0.715,0.152,1.345,0.432,1.89c0.28,0.545,0.653,0.956,1.118,1.232
		c0.464,0.276,0.977,0.415,1.538,0.415c0.376,0,0.72-0.044,1.031-0.133c0.311-0.088,0.612-0.227,0.904-0.414
		c0.292-0.188,0.561-0.391,0.807-0.605c0.246-0.215,0.564-0.507,0.956-0.875c0.161-0.139,0.392-0.208,0.691-0.208
		c0.322,0,0.583,0.089,0.783,0.266s0.299,0.426,0.299,0.748c0,0.284-0.111,0.617-0.334,0.997s-0.559,0.745-1.008,1.094
		c-0.449,0.35-1.014,0.64-1.693,0.87s-1.461,0.346-2.344,0.346c-2.02,0-3.59-0.576-4.711-1.728
		c-1.122-1.152-1.682-2.715-1.682-4.688c0-0.93,0.138-1.792,0.415-2.587c0.276-0.795,0.68-1.476,1.209-2.044
		s1.183-1.005,1.958-1.308c0.776-0.304,1.636-0.455,2.581-0.455c1.229,0,2.283,0.259,3.162,0.777s1.538,1.188,1.976,2.01
		c0.438,0.822,0.657,1.659,0.657,2.512c0,0.791-0.227,1.304-0.68,1.538S86.895,58.341,86.073,58.341z M79.922,56.556h5.702
		c-0.077-1.075-0.367-1.879-0.87-2.413s-1.166-0.801-1.987-0.801c-0.784,0-1.427,0.271-1.93,0.813
		C80.335,54.696,80.029,55.497,79.922,56.556z"/>
	<path style="fill:#FFA400;" d="M91.314,62.051v-13.64c0-0.629,0.14-1.105,0.421-1.428c0.28-0.322,0.658-0.484,1.134-0.484
		s0.86,0.16,1.152,0.479c0.292,0.318,0.438,0.797,0.438,1.434v13.64c0,0.638-0.148,1.115-0.443,1.434
		c-0.296,0.319-0.678,0.479-1.146,0.479c-0.46,0-0.835-0.165-1.123-0.495S91.314,62.666,91.314,62.051z"/>
	<path style="fill:#FFA400;" d="M97.708,62.051v-13.64c0-0.629,0.14-1.105,0.421-1.428c0.28-0.322,0.658-0.484,1.134-0.484
		s0.86,0.16,1.152,0.479c0.292,0.318,0.438,0.797,0.438,1.434v13.64c0,0.638-0.148,1.115-0.443,1.434
		c-0.296,0.319-0.678,0.479-1.146,0.479c-0.46,0-0.835-0.165-1.123-0.495S97.708,62.666,97.708,62.051z"/>
	<path style="fill:#FFA400;" d="M105.691,49.713c-0.438,0-0.812-0.134-1.123-0.403c-0.311-0.269-0.467-0.648-0.467-1.14
		c0-0.445,0.16-0.813,0.479-1.101c0.318-0.288,0.689-0.432,1.111-0.432c0.407,0,0.768,0.13,1.083,0.392
		c0.314,0.261,0.472,0.641,0.472,1.141c0,0.483-0.154,0.862-0.461,1.135S106.113,49.713,105.691,49.713z M107.246,52.962v9.089
		c0,0.63-0.15,1.105-0.449,1.428c-0.299,0.323-0.68,0.484-1.141,0.484c-0.46,0-0.835-0.165-1.123-0.495s-0.432-0.803-0.432-1.417
		v-8.997c0-0.622,0.144-1.09,0.432-1.405c0.288-0.314,0.663-0.473,1.123-0.473c0.461,0,0.841,0.158,1.141,0.473
		C107.096,51.964,107.246,52.402,107.246,52.962z"/>
</g>
<g>
	<path style="fill:#FFEF00;" d="M96.103,25.202L96.103,25.202c-0.86,0-1.564,0.704-1.564,1.564v6.571
		c0,0.86,0.704,1.564,1.564,1.564h0c0.86,0,1.564-0.704,1.564-1.564v-6.571C97.667,25.906,96.963,25.202,96.103,25.202z"/>
	<path style="fill:#FFA400;" d="M96.103,13.657L96.103,13.657c-0.86,0-1.564,0.704-1.564,1.564v6.571
		c0,0.86,0.704,1.564,1.564,1.564h0c0.86,0,1.564-0.704,1.564-1.564V15.22C97.667,14.36,96.963,13.657,96.103,13.657z"/>
	<path style="fill:#4DCCFF;" d="M96.103,5.41L96.103,5.41c-0.86,0-1.564,0.704-1.564,1.564v2.942c0,0.86,0.704,1.564,1.564,1.564h0
		c0.86,0,1.564-0.704,1.564-1.564V6.974C97.667,6.114,96.963,5.41,96.103,5.41z"/>
	<circle style="fill:#FF00C2;" cx="96.09" cy="1.55" r="1.55"/>
</g>
<g>
	<path style="fill:#FFEF00;" d="M134.721,62.304L134.721,62.304c0-0.86-0.704-1.564-1.564-1.564h-6.571
		c-0.86,0-1.564,0.704-1.564,1.564v0c0,0.86,0.704,1.564,1.564,1.564h6.571C134.017,63.868,134.721,63.164,134.721,62.304z"/>
	<path style="fill:#FFA400;" d="M146.267,62.304L146.267,62.304c0-0.86-0.704-1.564-1.564-1.564h-6.571
		c-0.86,0-1.564,0.704-1.564,1.564v0c0,0.86,0.704,1.564,1.564,1.564h6.571C145.563,63.868,146.267,63.164,146.267,62.304z"/>
	<path style="fill:#4DCCFF;" d="M154.513,62.304L154.513,62.304c0-0.86-0.704-1.564-1.564-1.564h-2.942
		c-0.86,0-1.564,0.704-1.564,1.564v0c0,0.86,0.704,1.564,1.564,1.564h2.942C153.81,63.868,154.513,63.164,154.513,62.304z"/>
	<circle style="fill:#FF00C2;" cx="158.373" cy="62.291" r="1.55"/>
</g>
<g>
	<path style="fill:#FFA400;" d="M105.49,26.34L105.49,26.34c-0.834-0.208-1.687,0.304-1.895,1.139l-1.59,6.376
		c-0.208,0.834,0.304,1.687,1.139,1.895h0c0.834,0.208,1.687-0.304,1.895-1.139l1.59-6.376
		C106.837,27.401,106.324,26.548,105.49,26.34z"/>
	<path style="fill:#FFEF00;" d="M108.283,15.137L108.283,15.137c-0.834-0.208-1.687,0.304-1.895,1.139l-1.59,6.376
		c-0.208,0.834,0.304,1.687,1.139,1.895l0,0c0.834,0.208,1.687-0.304,1.895-1.139l1.59-6.376
		C109.63,16.198,109.118,15.345,108.283,15.137z"/>
	<path style="fill:#6022C7;" d="M110.278,7.135L110.278,7.135c-0.834-0.208-1.687,0.304-1.895,1.139l-0.712,2.855
		c-0.208,0.834,0.304,1.687,1.139,1.895v0c0.834,0.208,1.687-0.304,1.895-1.139l0.712-2.855
		C111.625,8.196,111.113,7.343,110.278,7.135z"/>
	<circle style="fill:#FFA400;" cx="111.199" cy="3.387" r="1.55"/>
</g>
<g>
	<path style="fill:#FFEF00;" d="M114.918,30.036L114.918,30.036c-0.752-0.417-1.709-0.143-2.126,0.61l-3.186,5.747
		c-0.417,0.752-0.143,1.709,0.61,2.126h0c0.752,0.417,1.709,0.143,2.126-0.61l3.186-5.747
		C115.945,31.409,115.671,30.453,114.918,30.036z"/>
	<path style="fill:#FFA400;" d="M120.516,19.938L120.516,19.938c-0.752-0.417-1.709-0.143-2.126,0.61l-3.186,5.747
		c-0.417,0.752-0.143,1.709,0.61,2.126l0,0c0.752,0.417,1.709,0.143,2.126-0.61l3.186-5.747
		C121.542,21.312,121.268,20.355,120.516,19.938z"/>
	<path style="fill:#4DCCFF;" d="M124.514,12.725L124.514,12.725c-0.752-0.417-1.709-0.143-2.126,0.61l-1.426,2.573
		c-0.417,0.752-0.143,1.709,0.61,2.126v0c0.752,0.417,1.709,0.143,2.126-0.61l1.426-2.573
		C125.54,14.099,125.266,13.142,124.514,12.725z"/>
	<circle style="fill:#FF00C2;" cx="126.373" cy="9.343" r="1.55"/>
</g>
<g>
	<path style="fill:#FFA400;" d="M122.577,35.581L122.577,35.581c-0.629-0.587-1.623-0.552-2.21,0.077l-4.481,4.806
		c-0.587,0.629-0.552,1.623,0.077,2.21v0c0.629,0.587,1.623,0.552,2.21-0.077l4.481-4.806
		C123.241,37.162,123.206,36.168,122.577,35.581z"/>
	<path style="fill:#FFEF00;" d="M130.451,27.138L130.451,27.138c-0.629-0.587-1.623-0.552-2.21,0.077l-4.481,4.806
		c-0.587,0.629-0.552,1.623,0.077,2.21h0c0.629,0.587,1.623,0.552,2.21-0.077l4.481-4.806
		C131.115,28.719,131.08,27.724,130.451,27.138z"/>
	<path style="fill:#6022C7;" d="M136.075,21.106L136.075,21.106c-0.629-0.587-1.623-0.552-2.21,0.077l-2.007,2.152
		c-0.587,0.629-0.552,1.623,0.077,2.21v0c0.629,0.587,1.623,0.552,2.21-0.077l2.007-2.152
		C136.739,22.687,136.704,21.693,136.075,21.106z"/>
	<circle style="fill:#FFA400;" cx="138.698" cy="18.274" r="1.55"/>
</g>
<g>
	<path style="fill:#FFEF00;" d="M129.031,43.385L129.031,43.385c-0.456-0.729-1.425-0.953-2.155-0.497l-5.572,3.482
		c-0.729,0.456-0.953,1.425-0.497,2.155l0,0c0.456,0.729,1.425,0.953,2.155,0.497l5.572-3.482
		C129.263,45.084,129.487,44.115,129.031,43.385z"/>
	<path style="fill:#FFA400;" d="M138.822,37.267L138.822,37.267c-0.456-0.729-1.425-0.953-2.155-0.497l-5.572,3.482
		c-0.729,0.456-0.953,1.425-0.497,2.155l0,0c0.456,0.729,1.425,0.953,2.155,0.497l5.572-3.482
		C139.054,38.966,139.278,37.997,138.822,37.267z"/>
	<path style="fill:#4DCCFF;" d="M145.816,32.897L145.816,32.897c-0.456-0.729-1.425-0.953-2.155-0.497l-2.495,1.559
		c-0.729,0.456-0.953,1.425-0.497,2.155l0,0c0.456,0.729,1.425,0.953,2.155,0.497l2.495-1.559
		C146.048,34.596,146.272,33.626,145.816,32.897z"/>
	<circle style="fill:#FF00C2;" cx="149.082" cy="30.841" r="1.55"/>
</g>
<g>
	<path style="fill:#FFA400;" d="M133.246,52.594L133.246,52.594c-0.251-0.822-1.13-1.29-1.952-1.038l-6.284,1.921
		c-0.822,0.251-1.29,1.13-1.038,1.952l0,0c0.251,0.822,1.13,1.29,1.952,1.038l6.284-1.921
		C133.03,54.295,133.497,53.416,133.246,52.594z"/>
	<path style="fill:#FFEF00;" d="M144.287,49.218L144.287,49.218c-0.251-0.822-1.13-1.29-1.952-1.038l-6.284,1.921
		c-0.822,0.251-1.29,1.13-1.038,1.952v0c0.251,0.822,1.13,1.29,1.952,1.038l6.284-1.921
		C144.071,50.919,144.538,50.041,144.287,49.218z"/>
	<path style="fill:#6022C7;" d="M152.173,46.807L152.173,46.807c-0.251-0.822-1.13-1.29-1.952-1.038l-2.814,0.86
		c-0.822,0.251-1.29,1.13-1.038,1.952l0,0c0.251,0.822,1.13,1.29,1.952,1.038l2.814-0.86
		C151.957,48.508,152.425,47.63,152.173,46.807z"/>
	<circle style="fill:#FFA400;" cx="155.86" cy="45.666" r="1.55"/>
</g>
<g>
	<path style="fill:#FF00C2;" d="M102.487,11.868L102.487,11.868c0.854,0.105,1.638-0.508,1.743-1.361l0.359-2.92
		c0.105-0.854-0.508-1.638-1.361-1.743v0c-0.854-0.105-1.638,0.508-1.743,1.361l-0.359,2.92
		C101.021,10.979,101.634,11.763,102.487,11.868z"/>
	<circle style="fill:#FFA400;" cx="102.047" cy="15.561" r="1.55"/>
</g>
<g>
	<path style="fill:#FF00C2;" d="M114.91,14.946L114.91,14.946c0.803,0.308,1.712-0.097,2.02-0.899l1.054-2.747
		c0.308-0.803-0.097-1.712-0.899-2.02l0,0c-0.803-0.308-1.712,0.097-2.02,0.899l-1.054,2.747
		C113.703,13.729,114.107,14.638,114.91,14.946z"/>
	<circle style="fill:#FFA400;" cx="113.59" cy="18.423" r="1.55"/>
</g>
<g>
	<path style="fill:#FF00C2;" d="M126.967,21.469L126.967,21.469c0.696,0.506,1.679,0.35,2.184-0.346l1.729-2.38
		c0.505-0.696,0.35-1.679-0.346-2.184v0c-0.696-0.506-1.679-0.35-2.184,0.346l-1.729,2.38
		C126.115,19.981,126.271,20.963,126.967,21.469z"/>
	<circle style="fill:#FFA400;" cx="124.791" cy="24.485" r="1.55"/>
</g>
<g>
	<path style="fill:#FF00C2;" d="M136.924,30.89L136.924,30.89c0.541,0.668,1.531,0.772,2.199,0.231l2.287-1.852
		c0.668-0.541,0.772-1.531,0.231-2.199v0c-0.541-0.668-1.531-0.772-2.199-0.231l-2.287,1.852
		C136.487,29.232,136.383,30.221,136.924,30.89z"/>
	<circle style="fill:#FFA400;" cx="134.042" cy="33.241" r="1.55"/>
</g>
<g>
	<path style="fill:#FF00C2;" d="M144.103,42.567L144.103,42.567c0.35,0.786,1.279,1.142,2.064,0.792l2.688-1.197
		c0.786-0.35,1.142-1.279,0.792-2.064v0c-0.35-0.786-1.279-1.142-2.064-0.792l-2.688,1.197
		C144.11,40.852,143.754,41.781,144.103,42.567z"/>
	<circle style="fill:#FFA400;" cx="140.711" cy="44.092" r="1.55"/>
</g>
<g>
	<path style="fill:#FF00C2;" d="M148.016,55.704L148.016,55.704c0.135,0.849,0.94,1.434,1.789,1.3l2.906-0.46
		c0.849-0.135,1.434-0.94,1.3-1.789v0c-0.135-0.849-0.94-1.434-1.789-1.3l-2.906,0.46C148.466,54.05,147.882,54.855,148.016,55.704z
		"/>
	<circle style="fill:#FFA400;" cx="144.345" cy="56.299" r="1.55"/>
</g>
<path style="fill:#FFA400;" d="M86.7,26.34L86.7,26.34c0.834-0.208,1.687,0.304,1.895,1.139l1.59,6.376
	c0.208,0.834-0.304,1.687-1.139,1.895l0,0c-0.834,0.208-1.687-0.304-1.895-1.139l-1.59-6.376
	C85.353,27.401,85.866,26.548,86.7,26.34z"/>
<path style="fill:#FFEF00;" d="M83.907,15.137L83.907,15.137c0.834-0.208,1.687,0.304,1.895,1.139l1.59,6.376
	c0.208,0.834-0.304,1.687-1.139,1.895l0,0c-0.834,0.208-1.687-0.304-1.895-1.139l-1.59-6.376
	C82.56,16.198,83.073,15.345,83.907,15.137z"/>
<path style="fill:#6022C7;" d="M81.912,7.135L81.912,7.135c0.834-0.208,1.687,0.304,1.895,1.139l0.712,2.855
	c0.208,0.834-0.304,1.687-1.139,1.895v0c-0.834,0.208-1.687-0.304-1.895-1.139l-0.712-2.855C80.565,8.196,81.078,7.343,81.912,7.135
	z"/>
<circle style="fill:#FFA400;" cx="80.991" cy="3.387" r="1.55"/>
<g>
	<path style="fill:#FFEF00;" d="M77.272,30.036L77.272,30.036c0.752-0.417,1.709-0.143,2.126,0.61l3.186,5.747
		c0.417,0.752,0.143,1.709-0.61,2.126l0,0c-0.752,0.417-1.709,0.143-2.126-0.61l-3.186-5.747
		C76.246,31.409,76.52,30.453,77.272,30.036z"/>
	<path style="fill:#FFA400;" d="M71.675,19.938L71.675,19.938c0.752-0.417,1.709-0.143,2.126,0.61l3.186,5.747
		c0.417,0.752,0.143,1.709-0.61,2.126l0,0c-0.752,0.417-1.709,0.143-2.126-0.61l-3.186-5.747
		C70.648,21.312,70.922,20.355,71.675,19.938z"/>
	<path style="fill:#4DCCFF;" d="M67.676,12.725L67.676,12.725c0.752-0.417,1.709-0.143,2.126,0.61l1.426,2.573
		c0.417,0.752,0.143,1.709-0.61,2.126l0,0c-0.752,0.417-1.709,0.143-2.126-0.61l-1.426-2.573
		C66.65,14.099,66.924,13.142,67.676,12.725z"/>
	<circle style="fill:#FF00C2;" cx="65.817" cy="9.343" r="1.55"/>
</g>
<path style="fill:#FFA400;" d="M69.613,35.581L69.613,35.581c0.629-0.587,1.623-0.552,2.21,0.077l4.481,4.806
	c0.587,0.629,0.552,1.623-0.077,2.21v0c-0.629,0.587-1.623,0.552-2.21-0.077l-4.481-4.806C68.95,37.162,68.985,36.168,69.613,35.581
	z"/>
<path style="fill:#FFEF00;" d="M61.739,27.138L61.739,27.138c0.629-0.587,1.623-0.552,2.21,0.077l4.481,4.806
	c0.587,0.629,0.552,1.623-0.077,2.21l0,0c-0.629,0.587-1.623,0.552-2.21-0.077l-4.481-4.806
	C61.076,28.719,61.11,27.724,61.739,27.138z"/>
<path style="fill:#6022C7;" d="M56.115,21.106L56.115,21.106c0.629-0.587,1.623-0.552,2.21,0.077l2.007,2.152
	c0.587,0.629,0.552,1.623-0.077,2.21l0,0c-0.629,0.587-1.623,0.552-2.21-0.077l-2.007-2.152
	C55.451,22.687,55.486,21.693,56.115,21.106z"/>
<circle style="fill:#FFA400;" cx="53.493" cy="18.274" r="1.55"/>
<path style="fill:#FFEF00;" d="M63.159,43.385L63.159,43.385c0.456-0.729,1.425-0.953,2.155-0.497l5.572,3.482
	c0.729,0.456,0.953,1.425,0.497,2.155l0,0c-0.456,0.729-1.425,0.953-2.155,0.497l-5.572-3.482
	C62.927,45.084,62.704,44.115,63.159,43.385z"/>
<path style="fill:#FFA400;" d="M53.368,37.267L53.368,37.267c0.456-0.729,1.425-0.953,2.155-0.497l5.572,3.482
	c0.729,0.456,0.953,1.425,0.497,2.155v0c-0.456,0.729-1.425,0.953-2.155,0.497l-5.572-3.482
	C53.136,38.966,52.912,37.997,53.368,37.267z"/>
<path style="fill:#4DCCFF;" d="M46.374,32.897L46.374,32.897c0.456-0.729,1.425-0.953,2.155-0.497l2.495,1.559
	c0.729,0.456,0.953,1.425,0.497,2.155l0,0c-0.456,0.729-1.425,0.953-2.155,0.497l-2.495-1.559
	C46.143,34.596,45.919,33.626,46.374,32.897z"/>
<circle style="fill:#FF00C2;" cx="43.108" cy="30.841" r="1.55"/>
<g>
	<path style="fill:#FF00C2;" d="M89.703,11.868L89.703,11.868c-0.854,0.105-1.638-0.508-1.743-1.361l-0.359-2.92
		c-0.105-0.854,0.508-1.638,1.361-1.743v0c0.854-0.105,1.638,0.508,1.743,1.361l0.359,2.92
		C91.169,10.979,90.557,11.763,89.703,11.868z"/>
	<circle style="fill:#FFA400;" cx="90.143" cy="15.561" r="1.55"/>
</g>
<g>
	<path style="fill:#FF00C2;" d="M77.28,14.946L77.28,14.946c-0.803,0.308-1.712-0.097-2.02-0.899L74.205,11.3
		c-0.308-0.803,0.097-1.712,0.899-2.02v0c0.803-0.308,1.712,0.097,2.02,0.899l1.054,2.747C78.488,13.729,78.083,14.638,77.28,14.946
		z"/>
	<circle style="fill:#FFA400;" cx="78.6" cy="18.423" r="1.55"/>
</g>
<g>
	<path style="fill:#FF00C2;" d="M65.224,21.469L65.224,21.469c-0.696,0.506-1.679,0.35-2.184-0.346l-1.729-2.38
		c-0.506-0.696-0.35-1.679,0.346-2.184l0,0c0.696-0.506,1.679-0.35,2.184,0.346l1.729,2.38
		C66.075,19.981,65.92,20.963,65.224,21.469z"/>
	<circle style="fill:#FFA400;" cx="67.399" cy="24.485" r="1.55"/>
</g>
<g>
	<path style="fill:#FF00C2;" d="M55.267,30.89L55.267,30.89c-0.541,0.668-1.531,0.772-2.199,0.231l-2.287-1.852
		c-0.668-0.541-0.772-1.531-0.231-2.199v0c0.541-0.668,1.531-0.772,2.199-0.231l2.287,1.852
		C55.704,29.232,55.808,30.221,55.267,30.89z"/>
	<circle style="fill:#FFA400;" cx="58.148" cy="33.241" r="1.55"/>
</g>
<g>
	<path style="fill:#FF00C2;" d="M48.087,42.567L48.087,42.567c-0.35,0.786-1.279,1.142-2.064,0.792l-2.688-1.197
		c-0.786-0.35-1.142-1.279-0.792-2.064v0c0.35-0.786,1.279-1.142,2.064-0.792l2.688,1.197C48.08,40.852,48.437,41.781,48.087,42.567
		z"/>
	<circle style="fill:#FFA400;" cx="51.479" cy="44.092" r="1.55"/>
</g>
</svg>
