<svg xmlns="http://www.w3.org/2000/svg" width="35" height="35" viewBox="0 0 35 35">
  <metadata><?xpacket begin="﻿" id="W5M0MpCehiHzreSzNTczkc9d"?>
<x:xmpmeta xmlns:x="adobe:ns:meta/" x:xmptk="Adobe XMP Core 5.6-c138 79.159824, 2016/09/14-01:09:01        ">
   <rdf:RDF xmlns:rdf="http://www.w3.org/1999/02/22-rdf-syntax-ns#">
      <rdf:Description rdf:about=""/>
   </rdf:RDF>
</x:xmpmeta>
                                                                                                    
                                                                                                    
                                                                                                    
                                                                                                    
                                                                                                    
                                                                                                    
                                                                                                    
                                                                                                    
                                                                                                    
                                                                                                    
                                                                                                    
                                                                                                    
                                                                                                    
                                                                                                    
                                                                                                    
                                                                                                    
                                                                                                    
                                                                                                    
                                                                                                    
                                                                                                    
                           
<?xpacket end="w"?></metadata>
<defs>
    <style>
      .cls-1 {
        fill: #fff;
        fill-rule: evenodd;
      }
    </style>
  </defs>
  <path id="Shape_5_copy" data-name="Shape 5 copy" class="cls-1" d="M985.5,933a17.5,17.5,0,1,1,12.374-5.126A17.381,17.381,0,0,1,985.5,933Zm0-33.679a16.179,16.179,0,1,0,16.18,16.179A16.2,16.2,0,0,0,985.5,899.321Zm10.624,24.244c-0.014-.044-0.028-0.087-0.043-0.131q-1.362-4.1-2.726-8.2a0.5,0.5,0,0,0-.531-0.377q-1.33,0-2.662,0h-0.273c0.057-.108.1-0.18,0.134-0.253,0.57-1.149,1.174-2.282,1.7-3.451a6.328,6.328,0,0,0,.574-3.617,6.972,6.972,0,0,0-6.6-5.834,6.6,6.6,0,0,0-5.726,2.874,6.134,6.134,0,0,0-.873,6.117,28.357,28.357,0,0,0,1.891,3.917c0.04,0.071.075,0.144,0.128,0.247h-0.253q-1.261,0-2.525,0a0.575,0.575,0,0,0-.732.541q-0.987,2.955-1.972,5.912c-0.252.753-.5,1.506-0.752,2.261a0.478,0.478,0,0,0,.494.691c0.069,0,.138,0,0.207,0h16.3q1.871,0,3.741,0A0.483,0.483,0,0,0,996.124,923.565ZM980.47,911.613a9.062,9.062,0,0,1-.834-2.491,5.467,5.467,0,0,1,.683-3.47,5.946,5.946,0,0,1,10.993,1.706,5.539,5.539,0,0,1-.323,3.168,24.352,24.352,0,0,1-2.193,4.327c-1.013,1.61-2.087,3.182-3.136,4.77-0.042.063-.091,0.122-0.165,0.221-0.411-.591-0.809-1.15-1.194-1.718A46.333,46.333,0,0,1,980.47,911.613Zm-4.5,11.693c0.028-.1.05-0.2,0.08-0.286q1.163-3.487,2.322-6.978a0.307,0.307,0,0,1,.357-0.25q1.365,0.015,2.731,0a0.364,0.364,0,0,1,.344.2q1.611,2.414,3.238,4.815a0.487,0.487,0,0,0,.911.008q1.629-2.4,3.237-4.815a0.38,0.38,0,0,1,.364-0.205q1.387,0.014,2.777,0a0.245,0.245,0,0,1,.28.2q1.18,3.567,2.371,7.131c0.018,0.057.029,0.116,0.047,0.187H975.973Zm-0.522,1.058h-0.079a0.643,0.643,0,0,1-.538-0.242,0.633,0.633,0,0,1-.048-0.58c0.187-.573.382-1.154,0.569-1.716l1.023-3.066q0.567-1.7,1.132-3.392a0.662,0.662,0,0,1,.826-0.608h2.617c-0.018-.035-0.035-0.067-0.053-0.1a28.34,28.34,0,0,1-1.9-3.93,6.235,6.235,0,0,1,.886-6.211,6.671,6.671,0,0,1,5.808-2.915,6.884,6.884,0,0,1,4.4,1.766,7.022,7.022,0,0,1,2.3,4.152,6.39,6.39,0,0,1-.582,3.672c-0.367.819-.78,1.632-1.179,2.419-0.172.339-.35,0.69-0.521,1.036-0.018.036-.037,0.071-0.058,0.11H990.9c0.641,0,1.282,0,1.922,0a0.591,0.591,0,0,1,.625.445q1.1,3.3,2.192,6.59l0.534,1.607c0.015,0.044.03,0.088,0.043,0.132h0a0.648,0.648,0,0,1-.054.6,0.639,0.639,0,0,1-.546.232q-1.295,0-2.59,0H975.451Zm3.981-9.406h-1.1c-0.46,0-.489.023-0.639,0.473l-1.132,3.391-1.023,3.067c-0.187.562-.382,1.143-0.569,1.715a0.446,0.446,0,0,0,.022.4,0.454,0.454,0,0,0,.381.157h17.651q1.294,0,2.59,0a0.453,0.453,0,0,0,.386-0.151,0.463,0.463,0,0,0,.026-0.419h0c-0.014-.044-0.028-0.087-0.043-0.13l-0.534-1.606q-1.1-3.3-2.192-6.591a0.4,0.4,0,0,0-.437-0.309h-3.1l0.077-.145c0.02-.038.038-0.072,0.055-0.1,0.03-.056.055-0.1,0.078-0.149,0.172-.347.35-0.7,0.523-1.038,0.4-.785.809-1.6,1.175-2.41a6.2,6.2,0,0,0,.566-3.561,6.833,6.833,0,0,0-6.506-5.75,6.492,6.492,0,0,0-5.644,2.833,6.05,6.05,0,0,0-.861,6.024,28.124,28.124,0,0,0,1.885,3.9c0.027,0.048.052,0.1,0.082,0.156l0.048,0.094,0.075,0.145h-1.845Zm15.728,8.447H975.843l0.034-.126c0.009-.033.018-0.065,0.026-0.1,0.018-.067.034-0.13,0.056-0.194q0.293-.879.586-1.758c0.571-1.71,1.162-3.478,1.736-5.22a0.4,0.4,0,0,1,.452-0.318c0.842,0.009,1.735.01,2.729,0h0.007a0.46,0.46,0,0,1,.421.242c1.239,1.857,2.268,3.387,3.237,4.814a0.531,0.531,0,0,0,.378.276,0.515,0.515,0,0,0,.369-0.268c1.031-1.519,2.089-3.093,3.236-4.814a0.48,0.48,0,0,1,.448-0.249c0.856,0.008,1.763.009,2.775,0h0.006a0.339,0.339,0,0,1,.369.263c0.579,1.751,1.172,3.53,1.745,5.251l0.626,1.88c0.014,0.042.023,0.084,0.034,0.129,0,0.02.01,0.042,0.015,0.064Zm-19.058-.2h18.805c0-.02-0.011-0.039-0.016-0.057l-0.626-1.879c-0.573-1.721-1.166-3.5-1.745-5.252a0.15,0.15,0,0,0-.185-0.127c-1.013.009-1.922,0.008-2.779,0a0.285,0.285,0,0,0-.281.161c-1.147,1.721-2.206,3.3-3.237,4.816a0.659,0.659,0,0,1-.533.354h0a0.672,0.672,0,0,1-.542-0.362c-0.969-1.428-2-2.958-3.238-4.816a0.267,0.267,0,0,0-.261-0.154c-1,.01-1.89.009-2.734,0a0.212,0.212,0,0,0-.26.182c-0.575,1.742-1.166,3.511-1.737,5.221q-0.292.879-.586,1.758C976.13,923.1,976.116,923.153,976.1,923.207Zm9.39-3.194-0.078-.112c-0.13-.188-0.259-0.372-0.387-0.554-0.28-.4-0.545-0.777-0.808-1.166a46.562,46.562,0,0,1-3.839-6.527h0a9.173,9.173,0,0,1-.842-2.518,5.578,5.578,0,0,1,.694-3.532,6.022,6.022,0,0,1,11.177,1.734,5.631,5.631,0,0,1-.327,3.223,24.416,24.416,0,0,1-2.2,4.345c-0.713,1.133-1.469,2.265-2.2,3.36q-0.471.705-.938,1.411c-0.029.045-.06,0.085-0.1,0.136l-0.068.09Zm-0.013-17.278a5.744,5.744,0,0,0-5.073,2.965,5.388,5.388,0,0,0-.672,3.408,9,9,0,0,0,.826,2.463h0a46.47,46.47,0,0,0,3.823,6.5c0.262,0.387.526,0.764,0.806,1.163l0.31,0.443c0.031-.041.056-0.074,0.078-0.108q0.468-.707.939-1.411c0.73-1.094,1.484-2.226,2.2-3.357a24.115,24.115,0,0,0,2.184-4.309,5.434,5.434,0,0,0,.319-3.112,5.684,5.684,0,0,0-4.985-4.6A5.962,5.962,0,0,0,985.479,902.735Zm3.366,5.838a3.342,3.342,0,1,0-3.345,3.319A3.435,3.435,0,0,0,988.845,908.573Zm-5.734.011a2.393,2.393,0,1,1,2.453,2.372A2.31,2.31,0,0,1,983.111,908.584Zm2.395,3.407H985.5a3.533,3.533,0,0,1-3.437-3.448,3.442,3.442,0,0,1,6.882.03A3.533,3.533,0,0,1,985.506,911.991Zm-0.012-6.673a3.34,3.34,0,0,0-3.234,3.225,3.33,3.33,0,0,0,3.24,3.25h0.006a3.327,3.327,0,0,0,3.239-3.221h0a3.224,3.224,0,0,0-.959-2.261,3.271,3.271,0,0,0-2.28-.993h-0.012Zm0.033,5.737a2.536,2.536,0,0,1-1.8-.695,2.474,2.474,0,0,1-.717-1.775h0a2.492,2.492,0,1,1,2.553,2.47h-0.038Zm-2.317-2.471a2.282,2.282,0,0,0,.658,1.635,2.337,2.337,0,0,0,1.695.637,2.3,2.3,0,0,0-.023-4.593h-0.026A2.218,2.218,0,0,0,983.21,908.584Z" transform="translate(-968 -898)"/>
</svg>
