<svg xmlns="http://www.w3.org/2000/svg" width="35" height="35" viewBox="0 0 35 35">
  <metadata><?xpacket begin="﻿" id="W5M0MpCehiHzreSzNTczkc9d"?>
<x:xmpmeta xmlns:x="adobe:ns:meta/" x:xmptk="Adobe XMP Core 5.6-c138 79.159824, 2016/09/14-01:09:01        ">
   <rdf:RDF xmlns:rdf="http://www.w3.org/1999/02/22-rdf-syntax-ns#">
      <rdf:Description rdf:about=""/>
   </rdf:RDF>
</x:xmpmeta>
                                                                                                    
                                                                                                    
                                                                                                    
                                                                                                    
                                                                                                    
                                                                                                    
                                                                                                    
                                                                                                    
                                                                                                    
                                                                                                    
                                                                                                    
                                                                                                    
                                                                                                    
                                                                                                    
                                                                                                    
                                                                                                    
                                                                                                    
                                                                                                    
                                                                                                    
                                                                                                    
                           
<?xpacket end="w"?></metadata>
<defs>
    <style>
      .cls-1 {
        fill: #fff;
        fill-rule: evenodd;
      }
    </style>
  </defs>
  <path id="Shape_4_copy" data-name="Shape 4 copy" class="cls-1" d="M985.5,989a17.5,17.5,0,1,1,12.374-5.126A17.381,17.381,0,0,1,985.5,989Zm0-33.679a16.179,16.179,0,1,0,16.18,16.179A16.2,16.2,0,0,0,985.5,955.321Zm-11.12,10.722a1.237,1.237,0,0,1,.411-1.053,11.139,11.139,0,0,1,4.278-3.064,1.777,1.777,0,0,1,1.831.328,0.7,0.7,0,0,1,.222.326q0.789,2.368,1.559,4.743a1.747,1.747,0,0,1-.071,1.276,1.53,1.53,0,0,1-.47.587c-0.432.319-.9,0.589-1.354,0.879a0.694,0.694,0,0,0-.312,1,3.153,3.153,0,0,0,.377.6,21.41,21.41,0,0,0,4.591,4.559,2.815,2.815,0,0,0,.9.365,0.515,0.515,0,0,0,.589-0.3c0.271-.453.565-0.893,0.849-1.337a1.648,1.648,0,0,1,1.618-.684,24.666,24.666,0,0,1,4.848,1.514,1.681,1.681,0,0,1,.866,2.125,10.929,10.929,0,0,1-3.429,4.605,0.416,0.416,0,0,1-.248.083,14.964,14.964,0,0,1-5.9-1.174,18.3,18.3,0,0,1-10.515-11.534,12.038,12.038,0,0,1-.411-1.781C974.5,967.426,974.455,966.732,974.38,966.043ZM990.8,981.735a1.621,1.621,0,0,0,.6-0.18,9.783,9.783,0,0,0,2.876-3.987,0.766,0.766,0,0,0-.422-0.971,4.764,4.764,0,0,0-.488-0.2c-1.294-.4-2.582-0.813-3.888-1.162a0.774,0.774,0,0,0-1.087.441c-0.21.38-.478,0.727-0.7,1.1a1.452,1.452,0,0,1-1.39.711,2.146,2.146,0,0,1-1.247-.419,22.028,22.028,0,0,1-5.1-5.14,2.575,2.575,0,0,1-.342-0.691,1.542,1.542,0,0,1,.7-1.949c0.383-.2.736-0.463,1.1-0.7a0.747,0.747,0,0,0,.409-1.077c-0.456-1.449-.928-2.894-1.4-4.339a0.71,0.71,0,0,0-1.018-.457,9.758,9.758,0,0,0-3.854,2.8,0.947,0.947,0,0,0-.2.586,12.861,12.861,0,0,0,.585,3.635,17.3,17.3,0,0,0,6.683,9.056A15.3,15.3,0,0,0,990.8,981.735Zm0.644,0.962h-0.006a14.992,14.992,0,0,1-5.936-1.182,19.5,19.5,0,0,1-6.581-4.613,18.746,18.746,0,0,1-3.988-6.981,12.006,12.006,0,0,1-.415-1.8c-0.078-.48-0.125-0.971-0.17-1.446-0.02-.207-0.04-0.415-0.063-0.623a1.334,1.334,0,0,1,.434-1.131,11.31,11.31,0,0,1,4.316-3.091,1.859,1.859,0,0,1,1.927.34,0.787,0.787,0,0,1,.257.375c0.519,1.56,1.044,3.156,1.56,4.744a1.844,1.844,0,0,1-.076,1.346,1.642,1.642,0,0,1-.5.627c-0.311.23-.644,0.436-0.967,0.636-0.131.082-.263,0.164-0.393,0.247a0.6,0.6,0,0,0-.274.874,3.1,3.1,0,0,0,.365.583,21.177,21.177,0,0,0,4.57,4.539,2.7,2.7,0,0,0,.87.349,0.416,0.416,0,0,0,.478-0.253c0.2-.328.406-0.653,0.61-0.967q0.122-.186.241-0.373a1.756,1.756,0,0,1,1.723-.727,25.237,25.237,0,0,1,4.867,1.52,1.785,1.785,0,0,1,.918,2.252,11.094,11.094,0,0,1-3.46,4.647A0.52,0.52,0,0,1,991.441,982.7ZM979.7,961.9a1.559,1.559,0,0,0-.594.122,11.111,11.111,0,0,0-4.242,3.037,1.134,1.134,0,0,0-.387.972v0c0.023,0.209.043,0.419,0.063,0.629,0.045,0.471.092,0.959,0.169,1.432a11.876,11.876,0,0,0,.407,1.767,18.272,18.272,0,0,0,10.461,11.474,14.824,14.824,0,0,0,5.859,1.165h0a0.321,0.321,0,0,0,.183-0.061,10.9,10.9,0,0,0,3.4-4.564,1.584,1.584,0,0,0-.815-2,24.934,24.934,0,0,0-4.828-1.507,1.539,1.539,0,0,0-1.513.64c-0.08.125-.161,0.249-0.242,0.374-0.2.313-.412,0.636-0.606,0.96a0.609,0.609,0,0,1-.7.344,2.9,2.9,0,0,1-.933-0.38,21.363,21.363,0,0,1-4.612-4.581,3.186,3.186,0,0,1-.389-0.621,0.789,0.789,0,0,1,.349-1.122c0.131-.084.263-0.166,0.4-0.248,0.319-.2.649-0.4,0.953-0.627a1.452,1.452,0,0,0,.439-0.549,1.65,1.65,0,0,0,.067-1.2c-0.515-1.588-1.04-3.183-1.559-4.743a0.608,0.608,0,0,0-.188-0.278A1.89,1.89,0,0,0,979.7,961.9Zm11.107,19.939h-0.017a15.479,15.479,0,0,1-8.232-2.952,17.473,17.473,0,0,1-6.72-9.108,13.047,13.047,0,0,1-.589-3.662,1.04,1.04,0,0,1,.221-0.652,9.9,9.9,0,0,1,3.893-2.832,0.879,0.879,0,0,1,.714-0.009,0.844,0.844,0,0,1,.435.528c0.412,1.26.925,2.829,1.4,4.339a0.841,0.841,0,0,1-.45,1.191c-0.116.073-.232,0.151-0.345,0.227-0.245.163-.5,0.332-0.764,0.473a1.473,1.473,0,0,0-.65,1.832,2.494,2.494,0,0,0,.329.664,22.034,22.034,0,0,0,5.074,5.117,2.04,2.04,0,0,0,1.191.4,1.354,1.354,0,0,0,1.3-.663c0.1-.171.212-0.339,0.321-0.5,0.129-.193.262-0.393,0.375-0.6a0.867,0.867,0,0,1,1.2-.489c0.981,0.263,1.968.569,2.922,0.864l0.969,0.3a3.256,3.256,0,0,1,.375.15l0.123,0.054a0.862,0.862,0,0,1,.476,1.1,9.946,9.946,0,0,1-2.9,4.028,0.909,0.909,0,0,1-.442.159,1.876,1.876,0,0,0-.191.041ZM979.75,962.746a0.86,0.86,0,0,0-.313.065,9.715,9.715,0,0,0-3.815,2.777,0.858,0.858,0,0,0-.174.52,12.843,12.843,0,0,0,.58,3.607,17.283,17.283,0,0,0,6.646,9.006,15.3,15.3,0,0,0,8.112,2.915c0.064-.017.13-0.029,0.194-0.041a0.764,0.764,0,0,0,.348-0.115,9.743,9.743,0,0,0,2.849-3.948,0.664,0.664,0,0,0-.369-0.844l-0.126-.056a3.1,3.1,0,0,0-.352-0.14q-0.485-.148-0.97-0.3c-0.952-.295-1.937-0.6-2.915-0.861a0.679,0.679,0,0,0-.974.393c-0.117.212-.253,0.416-0.385,0.612-0.106.16-.217,0.325-0.315,0.492a1.538,1.538,0,0,1-1.476.76,2.228,2.228,0,0,1-1.3-.438,22.215,22.215,0,0,1-5.119-5.164,2.674,2.674,0,0,1-.356-0.718,1.66,1.66,0,0,1,.746-2.066c0.256-.136.506-0.3,0.747-0.463,0.113-.076.231-0.155,0.349-0.229a0.658,0.658,0,0,0,.367-0.964c-0.474-1.509-.987-3.078-1.4-4.338a0.657,0.657,0,0,0-.33-0.41A0.588,0.588,0,0,0,979.75,962.746Zm15.861,8.714c0,0.123,0,.246,0,0.371a0.426,0.426,0,0,1-.428.443,0.431,0.431,0,0,1-.441-0.426c-0.058-.566-0.076-1.139-0.175-1.7a9.5,9.5,0,0,0-7.356-7.624,18.33,18.33,0,0,0-1.908-.228,0.492,0.492,0,0,1-.552-0.456,0.479,0.479,0,0,1,.572-0.429,10.434,10.434,0,0,1,10.031,8.108A10.1,10.1,0,0,1,995.611,971.46Zm-0.466.915a0.537,0.537,0,0,1-.5-0.517c-0.019-.187-0.034-0.376-0.048-0.56-0.03-.373-0.06-0.759-0.125-1.13a9.442,9.442,0,0,0-7.279-7.544,11.828,11.828,0,0,0-1.4-.18c-0.165-.015-0.33-0.029-0.5-0.046a0.584,0.584,0,0,1-.641-0.558,0.576,0.576,0,0,1,.671-0.525h0a10.539,10.539,0,0,1,10.124,8.187,10.2,10.2,0,0,1,.262,1.956h0c0,0.126,0,.252,0,0.377a0.526,0.526,0,0,1-.517.538Zm-9.821-10.862a0.4,0.4,0,0,0-.477.333,0.416,0.416,0,0,0,.464.355q0.245,0.024.492,0.045a12.173,12.173,0,0,1,1.426.184,9.6,9.6,0,0,1,7.433,7.7c0.067,0.38.1,0.771,0.127,1.149,0.015,0.182.03,0.371,0.048,0.555a0.336,0.336,0,0,0,.334.338,0.329,0.329,0,0,0,.338-0.348c0-.121,0-0.244,0-0.366h0a10.054,10.054,0,0,0-.258-1.919A10.337,10.337,0,0,0,985.324,961.513Zm7.372,9.9c0.007,0.114.018,0.228,0.018,0.342a0.5,0.5,0,0,1-.436.519,0.469,0.469,0,0,1-.487-0.457,15.11,15.11,0,0,0-.216-1.627,6.536,6.536,0,0,0-6.12-4.945c-0.062,0-.125,0-0.187,0a0.487,0.487,0,0,1-.521-0.462,0.473,0.473,0,0,1,.539-0.437,6.986,6.986,0,0,1,2.519.473,7.451,7.451,0,0,1,4.858,6.135C992.687,971.1,992.686,971.261,992.7,971.416Zm-0.462.963a0.574,0.574,0,0,1-.542-0.547c-0.023-.178-0.041-0.361-0.058-0.537a7.486,7.486,0,0,0-.156-1.078,6.427,6.427,0,0,0-6.026-4.87l-0.069,0c-0.04,0-.081,0-0.121,0a0.585,0.585,0,0,1-.614-0.564,0.571,0.571,0,0,1,.64-0.533,7.036,7.036,0,0,1,2.554.48,7.568,7.568,0,0,1,4.919,6.211,3.084,3.084,0,0,1,.027.328c0,0.048,0,.1.007,0.146h0c0,0.035,0,.071.007,0.106,0.006,0.078.011,0.159,0.011,0.241a0.605,0.605,0,0,1-.525.618A0.489,0.489,0,0,1,992.234,972.379Zm-6.961-7.936a0.371,0.371,0,0,0-.426.341,0.391,0.391,0,0,0,.428.36l0.111,0,0.072,0a6.627,6.627,0,0,1,6.213,5.021,7.863,7.863,0,0,1,.161,1.106c0.016,0.175.034,0.355,0.057,0.531a0.374,0.374,0,0,0,.379.372,0.409,0.409,0,0,0,.347-0.421c0-.075,0-0.149-0.01-0.227,0-.036-0.006-0.073-0.007-0.109s-0.006-.1-0.008-0.15a2.708,2.708,0,0,0-.025-0.305,7.379,7.379,0,0,0-4.8-6.058,6.846,6.846,0,0,0-2.483-.466h-0.012Zm0.048,2.992a4.422,4.422,0,0,1,4.247,4.267,0.46,0.46,0,0,1-.411.576,0.49,0.49,0,0,1-.488-0.557,3.419,3.419,0,0,0-2.172-3.128,4.507,4.507,0,0,0-1.2-.273c-0.393-.053-0.576-0.166-0.571-0.461s0.194-.434.591-0.425C985.348,967.435,985.379,967.435,985.321,967.435Zm3.8,4.943a0.5,0.5,0,0,1-.335-0.123,0.743,0.743,0,0,1-.219-0.528,3.326,3.326,0,0,0-2.112-3.043,4.368,4.368,0,0,0-1.164-.264l-0.011,0a0.583,0.583,0,0,1-.656-0.56,0.5,0.5,0,0,1,.141-0.367,0.743,0.743,0,0,1,.551-0.156h0.032l0.017,0a4.564,4.564,0,0,1,3.013,1.355,4.367,4.367,0,0,1,1.286,3.008,0.548,0.548,0,0,1-.5.676h-0.039Zm-3.845-4.845a0.542,0.542,0,0,0-.374.1,0.311,0.311,0,0,0-.08.227c0,0.191.074,0.305,0.485,0.361h0.011a4.558,4.558,0,0,1,1.216.279,3.511,3.511,0,0,1,2.231,3.213,0.552,0.552,0,0,0,.152.391,0.305,0.305,0,0,0,.23.073c0.152-.01.325-0.072,0.319-0.475a4.349,4.349,0,0,0-4.151-4.17h-0.039Z" transform="translate(-968 -954)"/>
</svg>
