
<svg xmlns="http://www.w3.org/2000/svg" xmlns:xlink="http://www.w3.org/1999/xlink" x="0px" y="0px"
	 viewBox="-280 403.89 35 35"  xml:space="preserve">
<path d="M-262.501,403.89c-9.665,0-17.5,7.836-17.499,17.501c0,9.665,7.836,17.5,17.501,17.499
	c4.644,0.013,9.1-1.833,12.374-5.126c3.282-3.282,5.125-7.733,5.125-12.375C-245.001,411.724-252.836,403.89-262.501,403.89z
	 M-262.5,437.569c-8.935,0-16.179-7.244-16.179-16.179c0-8.935,7.244-16.179,16.179-16.179c8.931,0.012,16.167,7.248,16.179,16.179
	C-246.321,430.325-253.565,437.569-262.5,437.569z"/>
<path d="M-252.875,420.73h-8.965v-8.965c0-0.365-0.295-0.66-0.66-0.66c-0.365,0-0.66,0.296-0.66,0.66v8.965
	h-8.965c-0.365,0-0.66,0.295-0.66,0.66c0,0.365,0.296,0.66,0.66,0.66h8.965v8.965c0,0.001,0,0.001,0,0.002
	c0.001,0.364,0.296,0.659,0.66,0.658c0.001,0,0.001,0,0.002,0c0.364-0.001,0.659-0.296,0.658-0.66v-8.965h8.965
	c0.365,0,0.66-0.295,0.66-0.66C-252.215,421.025-252.51,420.73-252.875,420.73z"/>
</svg>
