<svg xmlns="http://www.w3.org/2000/svg" width="35" height="35" viewBox="0 0 35 35">
  <metadata><?xpacket begin="﻿" id="W5M0MpCehiHzreSzNTczkc9d"?>
<x:xmpmeta xmlns:x="adobe:ns:meta/" x:xmptk="Adobe XMP Core 5.6-c138 79.159824, 2016/09/14-01:09:01        ">
   <rdf:RDF xmlns:rdf="http://www.w3.org/1999/02/22-rdf-syntax-ns#">
      <rdf:Description rdf:about=""/>
   </rdf:RDF>
</x:xmpmeta>
                                                                                                    
                                                                                                    
                                                                                                    
                                                                                                    
                                                                                                    
                                                                                                    
                                                                                                    
                                                                                                    
                                                                                                    
                                                                                                    
                                                                                                    
                                                                                                    
                                                                                                    
                                                                                                    
                                                                                                    
                                                                                                    
                                                                                                    
                                                                                                    
                                                                                                    
                                                                                                    
                           
<?xpacket end="w"?></metadata>
<defs>
    <style>
      .cls-1 {
        fill: #fff;
        fill-rule: evenodd;
      }
    </style>
  </defs>
  <path id="Shape_3_copy_5" data-name="Shape 3 copy 5" class="cls-1" d="M757.5,718a17.5,17.5,0,1,1,12.374-5.126A17.381,17.381,0,0,1,757.5,718Zm0-33.679A16.179,16.179,0,1,0,773.679,700.5,16.2,16.2,0,0,0,757.5,684.321Zm0,26.464a0.659,0.659,0,0,1-.66-0.66v-19.25a0.66,0.66,0,0,1,1.32,0v19.25A0.659,0.659,0,0,1,757.5,710.785Zm9.625-9.625h-19.25a0.66,0.66,0,0,1,0-1.32h19.25A0.66,0.66,0,0,1,767.125,701.16Z" transform="translate(-740 -683)"/>
</svg>
