<?xml version="1.0" encoding="utf-8"?>
<!-- Generator: Adobe Illustrator 19.0.0, SVG Export Plug-In . SVG Version: 6.00 Build 0)  -->
<svg version="1.1" id="Layer_1" xmlns="http://www.w3.org/2000/svg" xmlns:xlink="http://www.w3.org/1999/xlink" x="0px" y="0px"
	 viewBox="-280 403.9 35 35" style="enable-background:new -280 403.9 35 35;" xml:space="preserve">
<path d="M-262.5,403.9c-9.7,0-17.5,7.8-17.5,17.5c0,9.7,7.8,17.5,17.5,17.5c4.6,0,9.1-1.8,12.4-5.1c3.3-3.3,5.1-7.7,5.1-12.4
	C-245,411.7-252.8,403.9-262.5,403.9z M-262.5,437.6c-8.9,0-16.2-7.2-16.2-16.2c0-8.9,7.2-16.2,16.2-16.2c8.9,0,16.2,7.2,16.2,16.2
	C-246.3,430.3-253.6,437.6-262.5,437.6z"/>
<path d="M-253.8,425.7c-1.6-0.7-3.2-1.2-4.8-1.5c-0.6-0.1-1.3,0.2-1.6,0.7c-0.3,0.4-0.6,0.9-0.8,1.3c-0.1,0.2-0.3,0.4-0.6,0.3
	c-0.3-0.1-0.6-0.2-0.9-0.4c-1.8-1.3-3.3-2.8-4.6-4.6c-0.1-0.2-0.3-0.4-0.4-0.6c0,0,0-0.1,0-0.1c-0.2-0.4,0-0.8,0.4-0.9
	c0.5-0.3,0.9-0.6,1.4-0.9c0.2-0.2,0.4-0.4,0.5-0.6c0.2-0.4,0.2-0.9,0.1-1.3c-0.5-1.6-1-3.2-1.6-4.7c0-0.1-0.1-0.2-0.2-0.3
	c-0.5-0.4-1.2-0.6-1.8-0.3c-1.6,0.7-3.1,1.7-4.3,3.1c-0.3,0.3-0.5,0.7-0.4,1.1l0,0c0.1,0.7,0.1,1.4,0.2,2.1c0.1,0.6,0.2,1.2,0.4,1.8
	c1.6,5.2,5.5,9.5,10.5,11.5c1.9,0.8,3.9,1.2,5.9,1.2c0.1,0,0.2,0,0.2-0.1c1.5-1.2,2.7-2.8,3.4-4.6C-252.6,427-253,426-253.8,425.7z
	 M-253.8,427.4c-0.6,1.5-1.6,2.9-2.8,3.9c-0.1,0.1-0.2,0.1-0.3,0.1c-0.1,0-0.1,0-0.2,0c-2.9-0.2-5.7-1.2-8.1-2.9
	c-3.2-2.2-5.5-5.4-6.6-9c-0.4-1.2-0.6-2.4-0.6-3.6c0-0.2,0.1-0.4,0.2-0.5c1-1.2,2.3-2.2,3.8-2.8c0.1,0,0.2-0.1,0.3-0.1
	c0.1,0,0.2,0,0.2,0.1c0.2,0.1,0.3,0.2,0.3,0.4c0.4,1.3,0.9,2.8,1.4,4.3c0,0,0,0.1,0.1,0.1c0.1,0.3-0.1,0.7-0.4,0.8
	c-0.1,0.1-0.2,0.2-0.3,0.2c-0.2,0.2-0.5,0.3-0.7,0.5c-0.7,0.4-1.1,1.3-0.7,2.1c0.1,0.3,0.2,0.5,0.4,0.7c1.4,2,3.1,3.7,5.1,5.2
	c0.4,0.3,0.8,0.4,1.3,0.4c0.6,0.1,1.2-0.2,1.5-0.8c0.1-0.2,0.2-0.3,0.3-0.5c0.1-0.2,0.3-0.4,0.4-0.6c0,0,0-0.1,0.1-0.1
	c0.2-0.3,0.6-0.5,0.9-0.3c1,0.3,2,0.6,2.9,0.9c0.3,0.1,0.6,0.2,1,0.3c0.1,0,0.2,0.1,0.4,0.1l0.1,0.1
	C-253.9,426.7-253.7,427.1-253.8,427.4z"/>
<path d="M-252.4,421.3c0,0.1,0,0.2,0,0.4c0,0.2-0.2,0.4-0.4,0.4c0,0,0,0,0,0c-0.2,0-0.4-0.2-0.4-0.4c0,0,0,0,0,0
	c-0.1-0.6-0.1-1.1-0.2-1.7c-0.7-3.8-3.6-6.8-7.4-7.6c-0.6-0.1-1.3-0.2-1.9-0.2c-0.3,0-0.5-0.2-0.5-0.4c0,0,0,0,0,0
	c0-0.3,0.3-0.5,0.5-0.4c0,0,0,0,0.1,0c4.8,0.1,9,3.4,10,8.1C-252.5,420-252.4,420.7-252.4,421.3L-252.4,421.3z"/>
<path d="M-255.3,421.3c0,0.1,0,0.2,0,0.3c0,0.3-0.2,0.5-0.4,0.5c-0.3,0-0.5-0.2-0.5-0.5c0,0,0,0,0,0c0-0.5-0.1-1.1-0.2-1.6
	c-0.7-2.8-3.2-4.8-6.1-4.9c-0.1,0-0.1,0-0.2,0c-0.3,0-0.5-0.2-0.5-0.5c0,0,0,0,0,0c0-0.3,0.2-0.5,0.5-0.4c0,0,0,0,0,0
	c0.9,0,1.7,0.2,2.5,0.5c2.6,1,4.5,3.3,4.9,6.1C-255.3,421-255.3,421.2-255.3,421.3L-255.3,421.3z"/>
<path d="M-262.7,417.3c2.3,0.1,4.2,2,4.2,4.3c0.1,0.2-0.1,0.5-0.3,0.6c0,0-0.1,0-0.1,0c-0.3,0-0.5-0.2-0.5-0.5c0,0,0,0,0-0.1
	c0-1.4-0.9-2.6-2.2-3.1c-0.4-0.1-0.8-0.2-1.2-0.3c-0.4-0.1-0.6-0.2-0.6-0.5S-263.1,417.3-262.7,417.3
	C-262.7,417.3-262.6,417.3-262.7,417.3L-262.7,417.3z"/>
<g>
	<path d="M-252.6,419.4c-1.1-4.7-5.3-8.1-10.1-8.2c0,0,0,0-0.1,0c-0.3,0-0.6,0.2-0.6,0.5c0,0,0,0,0,0c0,0.3,0.3,0.6,0.6,0.5
		c0.2,0,0.3,0,0.5,0c0.5,0,0.9,0.1,1.4,0.2c3.7,0.8,6.6,3.8,7.3,7.5c0.1,0.4,0.1,0.8,0.1,1.1c0,0.2,0,0.4,0,0.6
		c0,0.3,0.2,0.5,0.5,0.5l0,0c0,0,0,0,0,0c0.3,0,0.5-0.2,0.5-0.5c0-0.1,0-0.3,0-0.4C-252.3,420.7-252.4,420-252.6,419.4z"/>
	<path d="M-255.2,421.3c0,0,0-0.1,0-0.1c0-0.1,0-0.2,0-0.3c-0.3-2.8-2.2-5.2-4.9-6.2c-0.8-0.3-1.7-0.5-2.6-0.5c0,0,0,0,0,0
		c-0.3,0-0.6,0.2-0.6,0.5c0,0,0,0,0,0c0,0.3,0.3,0.6,0.6,0.6c0,0,0.1,0,0.1,0h0.1c2.9,0.1,5.3,2.1,6,4.9c0.1,0.4,0.1,0.7,0.2,1.1
		c0,0.2,0,0.4,0.1,0.5c0,0.3,0.2,0.5,0.5,0.5v0c0,0,0,0,0.1,0c0.3,0,0.5-0.3,0.5-0.6c0-0.1,0-0.2,0-0.2
		C-255.2,421.4-255.2,421.3-255.2,421.3z"/>
	<path d="M-259.6,418.6c-0.8-0.8-1.9-1.3-3-1.4h0h0c-0.2,0-0.4,0-0.6,0.2c-0.1,0.1-0.1,0.2-0.1,0.4c0,0,0,0,0,0.1
		c0,0.3,0.3,0.5,0.7,0.5h0c0.4,0,0.8,0.1,1.2,0.3c1.3,0.5,2.1,1.7,2.1,3c0,0.2,0.1,0.4,0.2,0.5c0.1,0.1,0.2,0.1,0.3,0.1l0,0h0
		c0,0,0.1,0,0.1,0c0.3-0.1,0.5-0.4,0.4-0.7C-258.4,420.5-258.8,419.4-259.6,418.6z"/>
</g>
</svg>
