<svg xmlns="http://www.w3.org/2000/svg" xmlns:xlink="http://www.w3.org/1999/xlink" x="0px" y="0px"
	 viewBox="-280 403.89 35 35" xml:space="preserve">
<path d="M-262.501,403.89c-9.665,0-17.5,7.836-17.499,17.501c0,9.665,7.836,17.5,17.501,17.499c4.644,0.013,9.1-1.833,12.374-5.126
	c3.282-3.282,5.125-7.733,5.125-12.375C-245.001,411.724-252.836,403.89-262.501,403.89z M-262.498,437.569
	c-8.935,0-16.179-7.243-16.18-16.178c0-8.935,7.243-16.179,16.178-16.18c8.931,0.011,16.168,7.248,16.18,16.179
	C-246.32,430.325-253.563,437.568-262.498,437.569z"/>
<path d="M-253.754,425.672c-1.56-0.67-3.184-1.177-4.848-1.514c-0.626-0.102-1.255,0.164-1.618,0.684
	c-0.284,0.444-0.578,0.884-0.849,1.337c-0.098,0.229-0.346,0.356-0.589,0.3c-0.319-0.069-0.623-0.192-0.9-0.365
	c-1.752-1.278-3.3-2.816-4.591-4.559c-0.148-0.185-0.274-0.386-0.377-0.6c-0.017-0.028-0.032-0.056-0.045-0.086
	c-0.154-0.351,0.006-0.76,0.357-0.914c0.454-0.29,0.922-0.56,1.354-0.879c0.203-0.154,0.365-0.355,0.47-0.587
	c0.184-0.401,0.209-0.857,0.071-1.276c-0.513-1.583-1.033-3.164-1.559-4.743c-0.041-0.128-0.118-0.241-0.222-0.326
	c-0.5-0.446-1.208-0.572-1.831-0.328c-1.65,0.665-3.117,1.716-4.278,3.064c-0.299,0.264-0.452,0.656-0.411,1.053l0,0
	c0.075,0.689,0.12,1.383,0.229,2.063c0.092,0.603,0.229,1.199,0.411,1.781c1.608,5.221,5.464,9.452,10.515,11.534
	c1.867,0.787,3.874,1.186,5.9,1.174c0.089,0,0.176-0.029,0.248-0.083c1.533-1.202,2.717-2.792,3.429-4.605
	C-252.573,426.971-252.951,426.042-253.754,425.672z M-253.823,427.422c-0.6,1.536-1.581,2.894-2.849,3.948
	c-0.105,0.066-0.224,0.105-0.348,0.115c-0.064,0.012-0.13,0.024-0.194,0.041c-2.927-0.174-5.743-1.186-8.112-2.915
	c-3.153-2.182-5.491-5.35-6.646-9.006c-0.364-1.169-0.56-2.383-0.58-3.607c0-0.188,0.061-0.37,0.174-0.52
	c1.024-1.225,2.334-2.179,3.815-2.777c0.099-0.041,0.206-0.063,0.313-0.065c0.086-0.001,0.171,0.017,0.249,0.052
	c0.162,0.085,0.282,0.233,0.33,0.41c0.413,1.26,0.926,2.829,1.4,4.338c0.026,0.044,0.047,0.09,0.062,0.138
	c0.11,0.346-0.083,0.716-0.429,0.826c-0.118,0.074-0.236,0.153-0.349,0.229c-0.241,0.163-0.491,0.327-0.747,0.463
	c-0.734,0.402-1.054,1.288-0.746,2.066c0.082,0.256,0.202,0.498,0.356,0.718c1.411,1.991,3.141,3.735,5.119,5.164
	c0.376,0.279,0.831,0.432,1.3,0.438c0.598,0.057,1.175-0.24,1.476-0.76c0.098-0.167,0.209-0.332,0.315-0.492
	c0.132-0.196,0.268-0.4,0.385-0.612c0.013-0.043,0.031-0.084,0.052-0.123c0.18-0.329,0.593-0.45,0.922-0.27
	c0.978,0.261,1.963,0.566,2.915,0.861c0.323,0.101,0.647,0.201,0.97,0.3c0.12,0.039,0.238,0.086,0.352,0.14l0.126,0.056
	C-253.862,426.714-253.699,427.087-253.823,427.422z"/>
<path d="M-252.389,421.35c0,0.123,0,0.246,0,0.371c0.009,0.235-0.174,0.433-0.409,0.443c-0.006,0-0.013,0-0.019,0
	c-0.238,0.006-0.435-0.183-0.441-0.421c0-0.002,0-0.003,0-0.005c-0.058-0.566-0.076-1.139-0.175-1.7
	c-0.676-3.8-3.583-6.813-7.356-7.624c-0.632-0.109-1.268-0.185-1.908-0.228c-0.27,0.034-0.516-0.158-0.549-0.427
	c-0.001-0.01-0.002-0.019-0.003-0.029c0.022-0.264,0.254-0.459,0.518-0.437c0.018,0.002,0.036,0.004,0.054,0.008
	c4.814,0.065,8.958,3.415,10.031,8.108C-252.498,420.046-252.412,420.696-252.389,421.35L-252.389,421.35z"/>
<path d="M-255.304,421.303c0.007,0.114,0.018,0.228,0.018,0.342c0.012,0.26-0.178,0.486-0.436,0.519
	c-0.259,0.01-0.477-0.192-0.487-0.451c0-0.002,0-0.004,0-0.006c-0.042-0.546-0.115-1.089-0.216-1.627
	c-0.708-2.829-3.205-4.847-6.12-4.945c-0.062,0-0.125,0-0.187,0c-0.268,0.019-0.501-0.183-0.52-0.451c0-0.004,0-0.007-0.001-0.011
	c0.017-0.261,0.242-0.458,0.503-0.441c0.012,0.001,0.024,0.002,0.036,0.004c0.862,0.001,1.716,0.161,2.519,0.473
	c2.649,0.962,4.529,3.336,4.858,6.135c0.024,0.146,0.023,0.307,0.037,0.462L-255.304,421.303z"/>
<path d="M-262.679,417.322c2.315,0.09,4.168,1.952,4.247,4.267c0.065,0.246-0.082,0.497-0.328,0.562
	c-0.027,0.007-0.055,0.012-0.083,0.014c-0.271,0.001-0.491-0.217-0.493-0.487c0-0.023,0.001-0.047,0.005-0.07
	c-0.023-1.387-0.881-2.622-2.172-3.128c-0.386-0.145-0.789-0.237-1.2-0.273c-0.393-0.053-0.576-0.166-0.571-0.461
	s0.194-0.434,0.591-0.425c0.031,0.004,0.062,0.004,0.004,0.004L-262.679,417.322z"/>
<g>
	<path d="M-252.553,419.392c-1.084-4.737-5.266-8.118-10.124-8.187c-0.018-0.003-0.036-0.005-0.054-0.007
		c-0.317-0.024-0.594,0.214-0.617,0.532c0,0.011,0.001,0.023,0.002,0.034c0.032,0.321,0.318,0.555,0.639,0.524
		c0.17,0.017,0.335,0.031,0.5,0.046c0.47,0.032,0.937,0.092,1.4,0.18c3.728,0.813,6.6,3.79,7.279,7.544
		c0.065,0.371,0.095,0.757,0.125,1.13c0.014,0.184,0.029,0.373,0.048,0.56c0.01,0.275,0.225,0.498,0.5,0.517l0.047-0.002
		c0.001,0,0.002,0,0.003,0c0.29-0.007,0.52-0.248,0.514-0.538c0-0.125,0-0.251,0-0.377
		C-252.315,420.689-252.403,420.034-252.553,419.392z"/>
	<path d="M-255.205,421.302c-0.007-0.046-0.007-0.098-0.007-0.146c-0.003-0.11-0.012-0.219-0.027-0.328
		c-0.338-2.832-2.24-5.233-4.919-6.211c-0.814-0.317-1.68-0.48-2.554-0.48c-0.012-0.001-0.024-0.003-0.036-0.003
		c-0.315-0.019-0.585,0.221-0.604,0.536c0,0.003,0,0.006,0,0.009c0.016,0.323,0.291,0.571,0.614,0.555c0.04,0,0.081,0,0.121,0h0.069
		c2.871,0.094,5.332,2.082,6.026,4.87c0.078,0.355,0.13,0.715,0.156,1.078c0.017,0.176,0.035,0.359,0.058,0.537
		c0.013,0.294,0.248,0.531,0.542,0.547v0.003c0.018,0,0.036,0,0.054-0.002c0.308-0.041,0.534-0.308,0.525-0.618
		c0-0.082-0.005-0.163-0.011-0.241C-255.205,421.373-255.205,421.337-255.205,421.302z"/>
	<path d="M-259.622,418.579c-0.8-0.812-1.875-1.295-3.013-1.355h-0.017h-0.032c-0.197-0.024-0.396,0.032-0.551,0.156
		c-0.095,0.098-0.146,0.231-0.141,0.367c0.001,0.018,0.002,0.037,0.004,0.055c0.04,0.319,0.332,0.546,0.652,0.505h0.011
		c0.398,0.034,0.79,0.123,1.164,0.264c1.256,0.492,2.09,1.694,2.112,3.043c0,0.198,0.078,0.388,0.219,0.528
		c0.093,0.081,0.212,0.125,0.335,0.123l0.004-0.002h0.039c0.032-0.002,0.065-0.007,0.096-0.014c0.294-0.071,0.475-0.367,0.404-0.662
		C-258.359,420.456-258.82,419.377-259.622,418.579z"/>
</g>
</svg>
